PathFileType	4	(X/Y/Z)	Kaydara																																																																																																																									
DataRate	CameraRate	NumFrames	NumMarkers	Units	OrigDataRate	OrigDataStartFrame	OrigNumFrames																																																																																																																					
30	30	7	41	mm	30	82	133																																																																																																																					
Frame#	Time	PAIB_LFHD			PAIB_RFHD			PAIB_LBHD			PAIB_RBHD			PAIB_LFTShould			PAIB_RFTShould			PAIB_LRRShould			PAIB_RRRShould			PAIB_T10			PAIB_STRN			PAIB_TRUN			PAIB_LSHO			PAIB_LUPA			PAIB_LELB			PAIB_LFRM			PAIB_LWRA			PAIB_LWRB			PAIB_LFIN			PAIB_RSHO			PAIB_RUPA			PAIB_RELB			PAIB_RFRM			PAIB_RWRA			PAIB_RWRB			PAIB_RFIN			PAIB_LFWT			PAIB_RFWT			PAIB_LBWT			PAIB_RBWT			PAIB_LTHI			PAIB_LKNE			PAIB_LSHN			PAIB_LANK			PAIB_LHEE			PAIB_LTOE			PAIB_RTHI			PAIB_RKNE			PAIB_RSHN			PAIB_RANK			PAIB_RHEE			PAIB_RTOE		
		X1	Y1	Z1	X2	Y2	Z2	X3	Y3	Z3	X4	Y4	Z4	X5	Y5	Z5	X6	Y6	Z6	X7	Y7	Z7	X8	Y8	Z8	X9	Y9	Z9	X10	Y10	Z10	X11	Y11	Z11	X12	Y12	Z12	X13	Y13	Z13	X14	Y14	Z14	X15	Y15	Z15	X16	Y16	Z16	X17	Y17	Z17	X18	Y18	Z18	X19	Y19	Z19	X20	Y20	Z20	X21	Y21	Z21	X22	Y22	Z22	X23	Y23	Z23	X24	Y24	Z24	X25	Y25	Z25	X26	Y26	Z26	X27	Y27	Z27	X28	Y28	Z28	X29	Y29	Z29	X30	Y30	Z30	X31	Y31	Z31	X32	Y32	Z32	X33	Y33	Z33	X34	Y34	Z34	X35	Y35	Z35	X36	Y36	Z36	X37	Y37	Z37	X38	Y38	Z38	X39	Y39	Z39	X40	Y40	Z40	X41	Y41	Z41
																																																																																																																												
67	2.7	306.4595	1623.79745	-766.92398	120.69614	1641.42838	-767.02232	307.86255	1562.75208	-881.72531	107.54263	1596.38885	-873.61092	263.03808	1350.31464	-747.05078	142.71512	1354.15146	-728.50693	249.56625	1423.11386	-887.52335	101.5881	1431.9397	-857.61467	150.21002	1274.02626	-961.20537	212.44226	1284.50974	-703.81981	208.29597	1181.62338	-687.83844	373.94287	1365.76187	-853.04993	453.88809	1162.56531	-917.2377	466.12309	1088.75343	-966.6143	529.3037	985.03555	-937.96661	550.03559	875.77377	-828.43559	553.62572	856.57402	-909.08806	603.32836	834.11575	-861.61331	12.27297	1372.96341	-763.04001	-90.80318	1221.84143	-786.21162	-143.23993	1119.69788	-771.3559	-143.54952	1018.38989	-666.59943	-51.97856	990.90454	-543.54439	-126.31044	950.38345	-558.84937	-106.87675	969.02649	-490.30228	289.12952	920.12627	-753.60558	55.93234	882.92725	-750.53535	234.64108	954.43077	-968.98239	90.17405	953.46771	-963.04672	297.33027	670.08583	-872.87285	314.75363	490.86876	-649.0963	274.03818	300.71558	-608.26012	261.98339	105.16718	-672.78374	204.15363	97.47396	-719.41818	249.12231	63.93195	-501.29044	51.2281	682.56012	-1009.89754	28.30531	432.62829	-1008.26538	86.13963	294.51397	-1133.72009	63.27079	234.79126	-1350.80963	131.19219	277.71801	-1361.32706	81.57082	75.80666	-1303.08029
68	2.733	314.00602	1631.18637	-717.1608	128.68063	1650.00473	-720.04707	316.27918	1566.62338	-830.03174	116.1122	1601.95206	-825.15152	266.32235	1356.98792	-691.69853	145.6409	1362.03247	-676.8235	258.54731	1430.68283	-832.60666	108.98294	1440.25085	-807.41859	159.64408	1282.86316	-911.27663	214.11678	1291.27792	-650.11749	208.96486	1188.09212	-635.54741	380.3566	1370.22278	-789.8349	454.87679	1159.93752	-838.93105	468.28644	1085.91705	-889.25995	523.0722	978.64548	-857.88437	529.47632	866.26709	-750.10971	537.13943	847.90451	-829.78806	581.92085	821.29303	-779.74083	16.27827	1381.16455	-715.44136	-83.97801	1227.78503	-744.26102	-134.22771	1123.63968	-736.95404	-139.9892	1012.29469	-642.98798	-55.37554	970.50812	-518.99914	-128.70522	932.71805	-542.69844	-113.25307	942.36275	-471.98441	295.83473	927.11395	-701.7981	62.05158	891.00296	-696.83647	236.54442	960.16365	-918.13393	91.52509	954.35677	-911.66954	298.07344	674.96475	-830.8075	317.74782	483.23353	-621.41659	274.19783	293.9197	-589.33704	261.01887	105.22546	-667.77466	204.40125	99.83086	-716.75827	245.91852	60.35776	-499.22058	49.89415	665.9726	-933.30482	26.23174	424.60567	-908.48412	87.85972	301.79632	-1045.50201	61.68738	266.39666	-1264.87679	128.87983	311.88665	-1274.20502	78.38833	90.40008	-1235.86693
69	2.767	317.47639	1643.79868	-667.74765	132.73637	1662.27661	-674.21318	322.18533	1577.35931	-779.45854	121.87611	1612.34299	-778.58543	266.66449	1369.05945	-638.8974	144.96314	1374.56909	-629.61224	266.13712	1441.93237	-781.23047	115.41557	1450.87952	-762.6384	171.57936	1292.62146	-861.62025	212.68051	1303.29361	-600.00187	207.31964	1200.34447	-584.87896	385.43285	1380.10864	-730.66689	454.38671	1162.69547	-765.81955	468.88588	1086.92947	-812.73407	514.93759	978.22525	-776.45111	504.00684	865.04906	-670.86899	520.0069	847.01019	-747.67342	556.67622	817.00363	-692.65625	16.22131	1392.75894	-675.68146	-79.36186	1236.29128	-709.69818	-125.37141	1129.39331	-704.84573	-138.07096	1010.31441	-624.60186	-60.94259	950.28328	-503.85056	-134.52218	919.48006	-534.11247	-118.94367	916.25656	-462.46784	302.98702	935.67398	-652.75032	69.00273	905.3038	-643.1469	237.75564	971.25267	-868.01414	92.89153	962.48199	-860.40123	295.99854	685.47546	-795.43655	315.50821	481.91952	-594.83795	272.78524	289.93017	-577.74174	259.28652	106.07546	-666.32782	202.42235	101.7154	-715.59174	243.75124	59.10863	-498.25233	53.26939	661.44676	-854.83856	24.7236	428.36433	-801.30371	88.7266	310.17498	-942.32399	64.39697	282.37787	-1164.1568	131.63733	326.80191	-1172.10953	76.72175	111.62681	-1127.06825
70	2.8	318.09881	1659.66156	-619.64439	133.09497	1675.23895	-629.18831	325.30403	1592.13898	-730.72189	124.54353	1624.27765	-733.32603	267.00729	1385.49393	-589.22188	144.94209	1389.66339	-584.51752	272.27543	1455.07446	-732.54959	121.3366	1462.82974	-719.36623	181.11973	1304.35196	-814.90944	212.18704	1319.49402	-551.4809	207.16717	1216.7424	-534.9926	389.67598	1393.67218	-676.94229	451.83201	1172.54028	-698.15903	468.19984	1094.44923	-742.42622	504.97414	985.33165	-697.78267	476.37928	876.79642	-590.41004	501.24264	855.31532	-664.54002	528.45287	825.4583	-603.03558	17.17808	1406.09421	-636.76338	-73.45595	1246.94359	-677.00211	-116.06968	1138.23769	-677.62413	-136.67669	1013.14774	-611.96514	-67.54343	933.74908	-497.68745	-142.06441	912.12761	-532.68852	-125.62463	895.50003	-461.92791	309.25137	946.52023	-603.23658	74.41	923.54248	-590.72197	238.97644	984.8188	-817.24167	94.95783	976.65115	-808.25897	295.50619	698.45139	-761.89293	316.33661	481.12732	-583.34797	275.61199	288.68656	-573.18306	259.21986	107.29393	-665.86853	202.03199	103.64205	-714.54292	243.65295	58.64956	-497.97291	54.94486	664.12758	-776.61217	24.28368	441.13701	-694.63303	89.15606	316.05633	-828.86314	68.32258	281.40839	-1048.06412	135.43535	322.05906	-1061.11305	79.00298	115.42818	-993.65097
71	2.833	316.51577	1674.42245	-572.78862	131.21692	1685.78506	-584.2757	326.13564	1606.38947	-683.53004	124.72637	1633.99857	-688.13637	267.73758	1400.92789	-540.89729	145.56388	1403.73749	-539.54914	277.17487	1467.36755	-684.89891	126.34595	1473.24097	-676.07903	189.90707	1313.72757	-766.11275	212.87146	1334.76944	-503.65391	208.47879	1232.23511	-485.41927	393.34232	1407.6973	-624.38263	452.52586	1185.05196	-638.52158	469.7319	1105.52719	-679.19846	495.47623	996.7997	-622.97935	448.8118	898.53638	-511.59225	480.27622	869.98398	-580.64373	499.09912	843.98621	-514.30958	18.25657	1417.6297	-597.5462	-67.54505	1257.20337	-645.60478	-106.14052	1147.13211	-653.29742	-133.60757	1017.13707	-603.77747	-74.06814	921.33774	-496.20686	-147.56141	907.76726	-537.35664	-134.39859	880.16472	-468.3522	313.48202	955.88326	-552.70962	78.27226	940.55801	-540.26917	240.06645	997.0327	-764.46724	97.31592	988.10806	-756.26274	292.24749	713.35091	-729.22607	317.26364	479.7942	-578.00808	275.7062	288.34284	-569.97459	259.92764	108.45053	-665.96909	202.39166	105.14467	-714.25911	244.39373	58.5612	-498.21274	54.03359	672.81898	-701.11237	26.48847	457.20959	-591.39145	92.45633	317.7865	-711.6304	73.03385	260.11435	-926.10352	140.4694	298.75168	-944.65454	84.30841	106.60653	-845.24506
72	2.867	313.67033	1684.8436	-526.76418	128.17091	1691.74759	-538.81111	325.19577	1616.48468	-637.1756	123.1499	1639.29092	-642.46834	268.26639	1411.53397	-493.20686	145.91142	1413.01971	-494.47163	280.63927	1475.23743	-637.63306	130.34279	1478.84048	-632.20448	197.64196	1318.80905	-717.59575	213.2235	1345.57556	-455.83271	209.63734	1243.41431	-435.54817	396.297	1418.58994	-573.70049	456.84719	1195.83542	-582.73746	474.41509	1115.46173	-619.93317	487.57523	1009.05136	-550.42744	424.32514	925.12604	-435.71152	460.39135	887.79343	-497.74483	470.98824	867.73468	-427.94418	18.27007	1424.25125	-558.08441	-61.91046	1263.08922	-615.7975	-96.96218	1151.84235	-628.68828	-129.38325	1019.0152	-594.94652	-81.52037	910.31387	-494.06521	-150.58633	903.05344	-543.30288	-144.58766	867.25525	-477.0937	317.93007	959.30664	-502.11208	82.23732	951.9722	-489.18922	241.29919	1004.22958	-712.77283	99.43605	995.24368	-704.08974	288.03963	725.80246	-694.59755	315.71613	479.50771	-569.73148	275.98627	289.06631	-567.2147	258.79839	110.16405	-665.6646	200.60894	107.07851	-712.9409	245.82678	58.32542	-498.03749	48.28212	679.61227	-630.54371	31.21776	471.91586	-494.06635	98.5386	316.06289	-593.1266	79.05525	222.06137	-795.58273	146.62117	259.31183	-820.92461	90.89831	92.50165	-685.33508
73	2.9	310.19907	1689.07318	-480.95615	124.55908	1692.20215	-493.01971	323.0389	1620.52048	-590.99537	120.56399	1639.27124	-596.41308	267.34695	1416.31195	-445.12093	144.99895	1415.24246	-448.92567	282.38058	1477.68631	-590.55153	132.3775	1478.52234	-587.4157	203.64401	1318.68561	-669.62509	212.60408	1349.59396	-408.01075	210.19094	1247.80846	-386.23085	397.67128	1424.03397	-524.10381	462.70943	1202.53433	-527.27104	481.24607	1121.26892	-560.95032	482.323	1019.88335	-479.31129	403.99502	952.35252	-363.18386	443.29613	906.36421	-417.08008	445.46906	893.44551	-344.75086	17.10688	1424.29031	-517.64091	-57.12331	1262.60704	-584.48479	-89.11083	1151.77223	-603.20049	-125.1639	1018.00491	-584.65004	-89.1124	899.32625	-489.60869	-152.40191	897.84882	-546.33179	-154.4402	855.51102	-484.51229	322.78957	957.33696	-452.18536	87.48775	956.72897	-438.10455	241.94048	1005.07324	-662.21474	100.57012	996.55716	-651.73813	285.70246	733.59512	-658.94974	314.26962	480.00851	-562.91565	276.55344	290.14935	-564.28303	255.23985	112.9493	-664.69589	195.98141	111.02424	-709.89456	247.00502	57.7607	-496.75064	41.73202	682.49344	-561.24779	38.06801	483.65742	-405.8036	105.98902	311.61755	-474.46022	85.74583	175.09823	-652.239	153.77014	207.63594	-686.00998	96.67118	78.134	-515.96912
